{"title":"WPC 56 S01","uid":11732103,"size":2560296168,"categoryP":"video","categoryS":"tv_shows","magnet":"?xt=urn:btih:2099fdac973aacff12625bf43a0f828b931db871&amp;dn=WPC+56+S01&amp;tr=udp%3A%2F%2Ftracker.openbittorrent.com%3A80&amp;tr=udp%3A%2F%2Fopen.demonii.com%3A1337&amp;tr=udp%3A%2F%2Ftracker.coppersurfer.tk%3A6969&amp;tr=udp%3A%2F%2Fexodus.desync.com%3A6969","seeders":8,"leechers":3,"uploader":"RedBaron58","files":5,"time":1425421905,"description":"WPC 56 S01 x264 mp4\n  &lt;a href=&quot;\nhttp://www.imdb.com/title/tt2678354/&quot; rel=&quot;nofollow&quot; target=&quot;_NEW&quot;&gt;\nhttp://www.imdb.com/title/tt2678354/&lt;/a&gt;\n\nTrailer:\n\n\nThank you for your kind comments and feedback on my other torrents, your feedback is welcome.\n\n\nAbout the Series:\nSet in 1956, the series follows WPC 56 Gina Dawson through the trials of being the first female officer \nto serve in her Midlands home town of Brinford. \nChief Inspector Roger Nelson gives her a small office, previously a closet/storage room, and tasks her \nwith making tea, paperwork, dealing with children and women, and told not to distract the men, \nwho might seek to protect her in dangerous situations, so they could deal with the important police work. \nShe finds she has to work hard to be taken seriously by her male colleagues and is shocked by some of \nthe methods employed by Sergeant Sidney Fenton and the blind eye turned by the rest of the officers \nto keep the Chief Inspector in the dark.\nThe series revolves round two missing boys and a serial attacker and the relationships of the officers families.\n\n\nI hope you enjoy.\n\n\nTechnical: (All episodes are encoded to the same settings)\n\nGeneral\nComplete name                            : H:WPC 56 S01WPC 56 S01E01 Sink or Swim x264 RB58.mp4\nFormat                                   : MPEG-4\nFormat profile                           : Base Media\nCodec ID                                 : isom\nFile size                                : 474 MiB\nDuration                                 : 44mn 7s\nOverall bit rate mode                    : Constant\nOverall bit rate                         : 1 503 Kbps\nWriting application                      : Lavf54.63.104\n\nVideo\nID                                       : 1\nFormat                                   : AVC\nFormat/Info                              : Advanced Video Codec\nFormat profile                           : &lt;a class=&quot;__cf_email__&quot; href=&quot;/cdn-cgi/l/email-protection&quot; data-cfemail=&quot;2a674b43446a6619041b&quot;&gt;[email&amp;#160;protected]&lt;/a&gt;&lt;script cf-hash='f9e31' type=&quot;text/javascript&quot;&gt;\n/* &lt;![CDATA[ */!function(){try{var t=&quot;currentScript&quot;in document?document.currentScript:function(){for(var t=document.getElementsByTagName(&quot;script&quot;),e=t.length;e--;)if(t[e].getAttribute(&quot;cf-hash&quot;))return t[e]}();if(t&amp;&amp;t.previousSibling){var e,r,n,i,c=t.previousSibling,a=c.getAttribute(&quot;data-cfemail&quot;);if(a){for(e=&quot;&quot;,r=parseInt(a.substr(0,2),16),n=2;a.length-n;n+=2)i=parseInt(a.substr(n,2),16)^r,e+=String.fromCharCode(i);e=document.createTextNode(e),c.parentNode.replaceChild(e,c)}}}catch(u){}}();/* ]]&gt; */&lt;/script&gt;\nFormat settings, CABAC                   : Yes\nFormat settings, ReFrames                : 2 frames\nCodec ID                                 : avc1\nCodec ID/Info                            : Advanced Video Coding\nDuration                                 : 44mn 7s\nBit rate mode                            : Constant\nBit rate                                 : 1 404 Kbps\nWidth                                    : 832 pixels\nHeight                                   : 468 pixels\nDisplay aspect ratio                     : 16:9\nFrame rate mode                          : Constant\nFrame rate                               : 25.000 fps\nColor space                              : YUV\nChroma subsampling                       : 4:2:0\nBit depth                                : 8 bits\nScan type                                : Progressive\nBits/(Pixel*Frame)                       : 0.144\nStream size                              : 443 MiB (93%)\n\nAudio\nID                                       : 2\nFormat                                   : AAC\nFormat/Info                              : Advanced Audio Codec\nFormat profile                           : LC\nCodec ID                                 : 40\nDuration                                 : 44mn 7s\nBit rate mode                            : Constant\nBit rate                                 : 93.5 Kbps\nChannel(s)                               : 2 channels\nChannel positions                        : Front: L R\nSampling rate                            : 48.0 KHz\nCompression mode                         : Lossy\nStream size                              : 29.5 MiB (6%)","torrent":{"xt":"urn:btih:2099fdac973aacff12625bf43a0f828b931db871","amp;dn":"WPC+56+S01","amp;tr":["udp%3A%2F%2Ftracker.openbittorrent.com%3A80","udp%3A%2F%2Fopen.demonii.com%3A1337","udp%3A%2F%2Ftracker.coppersurfer.tk%3A6969","udp%3A%2F%2Fexodus.desync.com%3A6969"],"infoHash":"2099fdac973aacff12625bf43a0f828b931db871","infoHashBuffer":{"type":"Buffer","data":[32,153,253,172,151,58,172,255,18,98,91,244,58,15,130,139,147,29,184,113]},"announce":[],"urlList":[]}}